<?xml version="1.0" encoding="UTF-8" standalone="no"?>
<!-- Created with Inkscape (http://www.inkscape.org/) -->

<svg
   xmlns:dc="http://purl.org/dc/elements/1.1/"
   xmlns:cc="http://creativecommons.org/ns#"
   xmlns:rdf="http://www.w3.org/1999/02/22-rdf-syntax-ns#"
   xmlns:svg="http://www.w3.org/2000/svg"
   xmlns="http://www.w3.org/2000/svg"
   xmlns:xlink="http://www.w3.org/1999/xlink"
   xmlns:sodipodi="http://sodipodi.sourceforge.net/DTD/sodipodi-0.dtd"
   xmlns:inkscape="http://www.inkscape.org/namespaces/inkscape"
   width="647.36108"
   height="626.30585"
   id="svg3021"
   version="1.1"
   inkscape:version="0.47pre4 r22446"
   sodipodi:docname="Documento nuevo 3">
  <defs
     id="defs3023">
    <linearGradient
       inkscape:collect="always"
       id="linearGradient4160">
      <stop
         style="stop-color:#babdb6;stop-opacity:1;"
         offset="0"
         id="stop4162" />
      <stop
         style="stop-color:#babdb6;stop-opacity:0;"
         offset="1"
         id="stop4164" />
    </linearGradient>
    <linearGradient
       inkscape:collect="always"
       id="linearGradient3986">
      <stop
         style="stop-color:#803f00;stop-opacity:1"
         offset="0"
         id="stop3988" />
      <stop
         style="stop-color:#bf5e00;stop-opacity:1"
         offset="1"
         id="stop3990" />
    </linearGradient>
    <linearGradient
       inkscape:collect="always"
       id="linearGradient3955">
      <stop
         style="stop-color:#2e3436;stop-opacity:1;"
         offset="0"
         id="stop3957" />
      <stop
         style="stop-color:#2e3436;stop-opacity:0;"
         offset="1"
         id="stop3959" />
    </linearGradient>
    <linearGradient
       inkscape:collect="always"
       id="linearGradient3943">
      <stop
         style="stop-color:#590000;stop-opacity:1"
         offset="0"
         id="stop3945" />
      <stop
         style="stop-color:#bf0000;stop-opacity:1"
         offset="1"
         id="stop3947" />
    </linearGradient>
    <linearGradient
       id="linearGradient3163">
      <stop
         style="stop-color:#ffffff;stop-opacity:1;"
         offset="0"
         id="stop3165" />
      <stop
         style="stop-color:#ffffff;stop-opacity:0.50602412;"
         offset="1"
         id="stop3167" />
    </linearGradient>
    <linearGradient
       inkscape:collect="always"
       id="linearGradient3155">
      <stop
         style="stop-color:#590000;stop-opacity:1"
         offset="0"
         id="stop3157" />
      <stop
         style="stop-color:#bf0000;stop-opacity:1"
         offset="1"
         id="stop3159" />
    </linearGradient>
    <inkscape:perspective
       sodipodi:type="inkscape:persp3d"
       inkscape:vp_x="0 : 372.04724 : 1"
       inkscape:vp_y="0 : 1000 : 0"
       inkscape:vp_z="1052.3622 : 372.04724 : 1"
       inkscape:persp3d-origin="526.18109 : 248.03149 : 1"
       id="perspective3030" />
    <inkscape:perspective
       id="perspective2950"
       inkscape:persp3d-origin="0.5 : 0.33333333 : 1"
       inkscape:vp_z="1 : 0.5 : 1"
       inkscape:vp_y="0 : 1000 : 0"
       inkscape:vp_x="0 : 0.5 : 1"
       sodipodi:type="inkscape:persp3d" />
    <linearGradient
       inkscape:collect="always"
       xlink:href="#linearGradient2977"
       id="linearGradient3844"
       gradientUnits="userSpaceOnUse"
       x1="-1683"
       y1="-199.52618"
       x2="-1729.786"
       y2="-166.13782" />
    <linearGradient
       inkscape:collect="always"
       id="linearGradient2977">
      <stop
         style="stop-color:#37a42c;stop-opacity:1"
         offset="0"
         id="stop2979" />
      <stop
         style="stop-color:#00892c;stop-opacity:1"
         offset="1"
         id="stop2981" />
    </linearGradient>
    <linearGradient
       inkscape:collect="always"
       xlink:href="#linearGradient2985"
       id="linearGradient3846"
       gradientUnits="userSpaceOnUse"
       x1="-1772.5"
       y1="-113.63782"
       x2="-1712.5"
       y2="-145.13782" />
    <linearGradient
       inkscape:collect="always"
       id="linearGradient2985">
      <stop
         style="stop-color:#00892c;stop-opacity:1"
         offset="0"
         id="stop2987" />
      <stop
         style="stop-color:#006e29;stop-opacity:1"
         offset="1"
         id="stop2989" />
    </linearGradient>
    <linearGradient
       inkscape:collect="always"
       xlink:href="#linearGradient2977"
       id="linearGradient3862"
       x1="-1658.8496"
       y1="-408.54089"
       x2="-1588.3799"
       y2="-408.54089"
       gradientUnits="userSpaceOnUse"
       gradientTransform="matrix(0.46447489,0,0,0.46447489,976.08695,166.54303)" />
    <linearGradient
       inkscape:collect="always"
       xlink:href="#linearGradient2977"
       id="linearGradient3852"
       gradientUnits="userSpaceOnUse"
       gradientTransform="matrix(-0.89635948,0,0,0.89635948,-2433.9061,-702.2182)"
       x1="-1099.5072"
       y1="55.90192"
       x2="-1004.8273"
       y2="2.3519762" />
    <linearGradient
       inkscape:collect="always"
       xlink:href="#linearGradient2985"
       id="linearGradient3854"
       gradientUnits="userSpaceOnUse"
       gradientTransform="matrix(-0.89635948,0,0,0.89635948,-2433.9061,-393.9505)"
       x1="-1082.3668"
       y1="28.699799"
       x2="-1148.1886"
       y2="85.596619" />
    <linearGradient
       inkscape:collect="always"
       xlink:href="#linearGradient2977"
       id="linearGradient3779"
       x1="-1316.9387"
       y1="87.497284"
       x2="-1250.2734"
       y2="56.605263"
       gradientUnits="userSpaceOnUse" />
    <linearGradient
       inkscape:collect="always"
       xlink:href="#linearGradient2985"
       id="linearGradient3795"
       x1="-1360.1708"
       y1="124.88399"
       x2="-1310.9418"
       y2="97.335373"
       gradientUnits="userSpaceOnUse" />
    <linearGradient
       inkscape:collect="always"
       xlink:href="#linearGradient3155"
       id="linearGradient3161"
       x1="206"
       y1="1182.0938"
       x2="482"
       y2="930.09375"
       gradientUnits="userSpaceOnUse"
       gradientTransform="matrix(0.50770218,0,0,0.50770218,-16.657711,-25.360668)" />
    <linearGradient
       inkscape:collect="always"
       xlink:href="#linearGradient3163"
       id="linearGradient3169"
       x1="191.26204"
       y1="755.15863"
       x2="770"
       y2="692.09448"
       gradientUnits="userSpaceOnUse" />
    <linearGradient
       inkscape:collect="always"
       xlink:href="#linearGradient3943"
       id="linearGradient3949"
       x1="708.59601"
       y1="752.09448"
       x2="252.59602"
       y2="752.09448"
       gradientUnits="userSpaceOnUse" />
    <linearGradient
       inkscape:collect="always"
       xlink:href="#linearGradient3955"
       id="linearGradient3961"
       x1="214"
       y1="1122.0945"
       x2="224"
       y2="1181.2943"
       gradientUnits="userSpaceOnUse"
       gradientTransform="matrix(0.50770218,0,0,0.50770218,-16.657711,-25.360668)" />
    <linearGradient
       inkscape:collect="always"
       xlink:href="#linearGradient3955"
       id="linearGradient3965"
       gradientUnits="userSpaceOnUse"
       x1="214"
       y1="1122.0945"
       x2="224"
       y2="1181.2943"
       gradientTransform="matrix(0.77146336,-0.01821351,0.01821351,0.77146336,-111.90589,-464.66572)" />
    <linearGradient
       inkscape:collect="always"
       xlink:href="#linearGradient3955"
       id="linearGradient3969"
       gradientUnits="userSpaceOnUse"
       gradientTransform="translate(-438,-40)"
       x1="214"
       y1="1122.0945"
       x2="224"
       y2="1181.2943" />
    <linearGradient
       inkscape:collect="always"
       xlink:href="#linearGradient3986"
       id="linearGradient3995"
       gradientUnits="userSpaceOnUse"
       x1="509.82401"
       y1="745.89062"
       x2="314.66251"
       y2="745.89062"
       gradientTransform="matrix(0.50770218,0,0,0.50770218,-16.657711,-25.360668)" />
    <linearGradient
       inkscape:collect="always"
       xlink:href="#linearGradient3155"
       id="linearGradient4107"
       gradientUnits="userSpaceOnUse"
       gradientTransform="matrix(0.63475299,0,0,0.63475299,-418.17036,-28.81566)"
       x1="206"
       y1="1182.0938"
       x2="482"
       y2="930.09375" />
    <linearGradient
       inkscape:collect="always"
       xlink:href="#linearGradient3163"
       id="linearGradient4109"
       gradientUnits="userSpaceOnUse"
       x1="191.26204"
       y1="755.15863"
       x2="770"
       y2="692.09448" />
    <linearGradient
       inkscape:collect="always"
       xlink:href="#linearGradient3943"
       id="linearGradient4111"
       gradientUnits="userSpaceOnUse"
       x1="708.59601"
       y1="752.09448"
       x2="252.59602"
       y2="752.09448" />
    <linearGradient
       inkscape:collect="always"
       xlink:href="#linearGradient2977"
       id="linearGradient4113"
       gradientUnits="userSpaceOnUse"
       x1="-1316.9387"
       y1="87.497284"
       x2="-1250.2734"
       y2="56.605263" />
    <linearGradient
       inkscape:collect="always"
       xlink:href="#linearGradient2985"
       id="linearGradient4115"
       gradientUnits="userSpaceOnUse"
       x1="-1360.1708"
       y1="124.88399"
       x2="-1310.9418"
       y2="97.335373" />
    <linearGradient
       inkscape:collect="always"
       xlink:href="#linearGradient2977"
       id="linearGradient4117"
       gradientUnits="userSpaceOnUse"
       gradientTransform="matrix(-0.89635948,0,0,0.89635948,-2433.9061,-702.2182)"
       x1="-1099.5072"
       y1="55.90192"
       x2="-1004.8273"
       y2="2.3519762" />
    <linearGradient
       inkscape:collect="always"
       xlink:href="#linearGradient2985"
       id="linearGradient4119"
       gradientUnits="userSpaceOnUse"
       gradientTransform="matrix(-0.89635948,0,0,0.89635948,-2433.9061,-393.9505)"
       x1="-1082.3668"
       y1="28.699799"
       x2="-1148.1886"
       y2="85.596619" />
    <linearGradient
       inkscape:collect="always"
       xlink:href="#linearGradient2977"
       id="linearGradient4121"
       gradientUnits="userSpaceOnUse"
       gradientTransform="matrix(0.58070821,0,0,0.58070821,823.0054,211.11131)"
       x1="-1658.8496"
       y1="-408.54089"
       x2="-1588.3799"
       y2="-408.54089" />
    <linearGradient
       inkscape:collect="always"
       xlink:href="#linearGradient2977"
       id="linearGradient4123"
       gradientUnits="userSpaceOnUse"
       x1="-1683"
       y1="-199.52618"
       x2="-1729.786"
       y2="-166.13782" />
    <linearGradient
       inkscape:collect="always"
       xlink:href="#linearGradient2985"
       id="linearGradient4125"
       gradientUnits="userSpaceOnUse"
       x1="-1772.5"
       y1="-113.63782"
       x2="-1712.5"
       y2="-145.13782" />
    <linearGradient
       inkscape:collect="always"
       xlink:href="#linearGradient3955"
       id="linearGradient4127"
       gradientUnits="userSpaceOnUse"
       gradientTransform="matrix(0.63475299,0,0,0.63475299,-418.17036,-28.81566)"
       x1="214"
       y1="1122.0945"
       x2="224"
       y2="1181.2943" />
    <linearGradient
       inkscape:collect="always"
       xlink:href="#linearGradient3955"
       id="linearGradient4129"
       gradientUnits="userSpaceOnUse"
       gradientTransform="matrix(0.96451954,-0.02277138,0.02277138,0.96451954,-537.25408,-578.05536)"
       x1="214"
       y1="1122.0945"
       x2="224"
       y2="1181.2943" />
    <linearGradient
       inkscape:collect="always"
       xlink:href="#linearGradient3986"
       id="linearGradient4131"
       gradientUnits="userSpaceOnUse"
       gradientTransform="matrix(0.63475299,0,0,0.63475299,-418.17036,-28.81566)"
       x1="509.82401"
       y1="745.89062"
       x2="314.66251"
       y2="745.89062" />
    <linearGradient
       inkscape:collect="always"
       xlink:href="#linearGradient2985"
       id="linearGradient4142"
       gradientUnits="userSpaceOnUse"
       x1="-1360.1708"
       y1="124.88399"
       x2="-1310.9418"
       y2="97.335373"
       gradientTransform="matrix(-0.67942728,-0.14069071,-0.14069071,0.67942728,-895.18266,-6.8741933)" />
    <linearGradient
       inkscape:collect="always"
       xlink:href="#linearGradient2977"
       id="linearGradient4145"
       gradientUnits="userSpaceOnUse"
       x1="-1316.9387"
       y1="87.497284"
       x2="-1250.2734"
       y2="56.605263"
       gradientTransform="matrix(-0.67942728,-0.14069071,-0.14069071,0.67942728,-895.18266,-6.8741933)" />
    <linearGradient
       inkscape:collect="always"
       xlink:href="#linearGradient2985"
       id="linearGradient4148"
       gradientUnits="userSpaceOnUse"
       gradientTransform="matrix(-0.54677999,-0.15733699,-0.15733699,0.54677999,-628.69555,-131.73681)"
       x1="-1082.3668"
       y1="28.699799"
       x2="-1148.1886"
       y2="85.596619" />
    <linearGradient
       inkscape:collect="always"
       xlink:href="#linearGradient2977"
       id="linearGradient4151"
       gradientUnits="userSpaceOnUse"
       gradientTransform="matrix(-0.54677999,-0.15733699,-0.15733699,0.54677999,-628.69555,-131.73681)"
       x1="-1099.5072"
       y1="55.90192"
       x2="-1004.8273"
       y2="2.3519762" />
    <linearGradient
       inkscape:collect="always"
       xlink:href="#linearGradient2985"
       id="linearGradient4154"
       gradientUnits="userSpaceOnUse"
       x1="-1772.5"
       y1="-113.63782"
       x2="-1712.5"
       y2="-145.13782"
       gradientTransform="matrix(0.62957086,-0.08094375,0.08094375,0.62957086,900.7497,106.03735)" />
    <linearGradient
       inkscape:collect="always"
       xlink:href="#linearGradient2977"
       id="linearGradient4157"
       gradientUnits="userSpaceOnUse"
       x1="-1683"
       y1="-199.52618"
       x2="-1729.786"
       y2="-166.13782"
       gradientTransform="matrix(0.62957086,-0.08094375,0.08094375,0.62957086,900.7497,106.03735)" />
    <linearGradient
       inkscape:collect="always"
       xlink:href="#linearGradient4160"
       id="linearGradient4166"
       x1="-126.49938"
       y1="666.09448"
       x2="-126.49938"
       y2="88.094482"
       gradientUnits="userSpaceOnUse"
       gradientTransform="matrix(0.79984213,0,0.49030477,0.34018109,-19.961076,321.34869)" />
    <filter
       inkscape:collect="always"
       id="filter4168">
      <feGaussianBlur
         inkscape:collect="always"
         stdDeviation="5.1973644"
         id="feGaussianBlur4170" />
    </filter>
  </defs>
  <sodipodi:namedview
     inkscape:document-units="mm"
     pagecolor="#ffffff"
     bordercolor="#666666"
     borderopacity="1.0"
     inkscape:pageopacity="0.0"
     inkscape:pageshadow="2"
     inkscape:zoom="0.5"
     inkscape:cx="646.81657"
     inkscape:cy="42.326004"
     inkscape:current-layer="layer1"
     id="namedview3025"
     showgrid="false"
     inkscape:window-width="1280"
     inkscape:window-height="950"
     inkscape:window-x="0"
     inkscape:window-y="25"
     inkscape:window-maximized="1" />
  <metadata
     id="metadata3027">
    <rdf:RDF>
      <cc:Work
         rdf:about="">
        <dc:format>image/svg+xml</dc:format>
        <dc:type
           rdf:resource="http://purl.org/dc/dcmitype/StillImage" />
        <dc:title></dc:title>
      </cc:Work>
    </rdf:RDF>
  </metadata>
  <g
     inkscape:label="Layer 1"
     inkscape:groupmode="layer"
     id="layer1"
     transform="translate(258.36856,51.514889)">
    <path
       style="fill:url(#linearGradient4166);fill-opacity:1;stroke:none;filter:url(#filter4168)"
       d="m -136.74772,300.42756 c 0.75903,0.27674 1.48548,0.54797 2.21991,0.82918 0.26906,0.10301 0.52855,0.20473 0.79427,0.3083 0.46164,0.17994 0.92982,0.36057 1.38131,0.54216 0.51932,0.20877 1.02312,0.41641 1.52888,0.62721 0.18691,0.0779 0.37696,0.15566 0.56204,0.23388 0.28218,0.11919 0.56807,0.24165 0.84589,0.36144 0.39263,0.16941 0.77653,0.33973 1.16036,0.51026 0.0645,0.0286 0.13334,0.0564 0.19752,0.0851 1.90264,0.84954 3.69461,1.71169 5.37293,2.58325 0.29223,0.15164 0.57352,0.30497 0.85881,0.45712 1.97578,1.05439 3.79002,2.11947 5.42144,3.1892 0.2748,0.18012 0.54164,0.36187 0.80638,0.54216 0.56991,0.38836 1.11276,0.78076 1.63543,1.16938 0.0383,0.0282 0.085,0.0568 0.12259,0.085 0.0187,0.0141 0.0427,0.0285 0.0613,0.0426 0.0521,0.039 0.0921,0.0779 0.1436,0.11694 1.1602,0.87933 2.1991,1.75226 3.10966,2.62577 0.18854,0.18088 0.37886,0.36175 0.55647,0.54217 l -0.63377,-0.12757 -0.0902,0.31892 c -12.22789,1.00931 -29.57614,-6.92014 -23.22481,-8.48327 1.63693,-0.40287 4.72669,-0.22297 8.49051,1.05244 1.49864,0.5808 3.29638,1.43409 4.12464,1.9773 0.98102,0.64335 1.82413,1.59597 1.93158,2.18992 0.0486,0.26825 0.13762,0.47837 0.22426,0.46775 0.12239,-0.015 0.13108,-0.17315 0.0886,-0.37207 0.27612,-0.0338 -0.17821,-0.89272 -0.76471,-1.46703 -0.69422,-0.67977 -1.77535,-1.35615 -3.14016,-1.98794 -1.97445,-0.9631 -4.58972,-1.84751 -7.62651,-2.55136 -2.91559,-0.67576 -5.42302,-1.025 -8.22848,-1.14811 -9.56153,-0.41959 -12.56159,2.91276 -6.40997,7.15444 1.57531,1.0862 4.39001,2.45254 7.04859,3.43369 8.02743,2.96252 17.84809,4.52785 24.87102,3.95462 2.4119,-0.19688 4.45998,-0.76877 5.72673,-1.54145 0.4045,0.6075 0.72246,1.20142 0.98974,1.79658 7.045413,11.51593 1.77405,21.76887 13.986539,33.82675 0.04332,0.0429 0.06484,0.0846 0.108926,0.12757 0.179977,0.17601 0.378657,0.35475 0.56614,0.53154 0.287907,0.27223 0.57343,0.54441 0.879859,0.81855 0.102756,0.0917 0.218523,0.18446 0.323431,0.27641 0.423643,0.37219 0.84926,0.74031 1.308871,1.11622 0.375174,0.3063 0.782985,0.61599 1.183041,0.92486 0.211486,0.16354 0.411158,0.32472 0.629869,0.48901 0.024,0.0178 0.05265,0.0354 0.07664,0.0532 0.620569,0.46474 1.267144,0.93233 1.947558,1.40324 0.0048,0.003 0.01025,0.007 0.01525,0.0106 0.332831,0.23037 0.688368,0.46972 1.036207,0.70162 0.362558,0.24156 0.712981,0.47964 1.091892,0.72289 0.94619,0.3854 1.911052,0.77088 2.854534,1.14811 0.358692,0.14341 0.704581,0.28294 1.062801,0.42523 0.584259,0.23209 1.162939,0.46176 1.745782,0.69099 0.04738,0.0186 0.104291,0.0345 0.151602,0.0532 0.354572,0.13934 0.693494,0.27626 1.047465,0.41459 0.07384,0.0289 0.148711,0.0562 0.222563,0.0851 0.316704,0.15424 0.613658,0.28703 0.613658,0.28703 l 0.109639,-0.0106 c 1.215958,0.47295 2.430235,0.95172 3.637524,1.41388 0.03659,0.014 0.07471,0.0285 0.111303,0.0426 1.766072,0.67578 3.537471,1.34229 5.280072,1.99857 2.768221,1.0424 5.486981,2.06549 8.177322,3.07226 0.869084,0.32528 1.750038,0.65531 2.609389,0.97802 0.226579,0.0851 0.466803,0.17022 0.692671,0.25514 1.528354,0.57472 3.063451,1.15265 4.556748,1.72216 0.258437,0.0986 0.521642,0.19921 0.778951,0.29766 0.369559,0.14142 0.720601,0.28396 1.087785,0.42522 1.374377,0.52866 2.743882,1.056 4.082626,1.58397 0.530711,0.20935 1.054152,0.41769 1.578865,0.62721 0.312314,0.12469 0.626068,0.24728 0.936199,0.37208 0.501845,0.20198 1.002258,0.40356 1.498232,0.60595 0.328047,0.13383 0.65675,0.2699 0.98215,0.40396 1.265534,0.52149 2.518975,1.0469 3.742366,1.57334 0.353258,0.15197 0.70922,0.3046 1.058775,0.45711 0.412038,0.17982 0.824557,0.36151 1.231332,0.54217 0.364145,0.16169 0.719906,0.32657 1.079747,0.48901 0.383229,0.17303 0.772464,0.34693 1.150693,0.5209 0.107467,0.0494 0.207383,0.0993 0.31449,0.14884 0.623085,0.28814 1.232069,0.57003 1.840965,0.86107 0.384276,0.18363 0.768216,0.36789 1.146677,0.5528 0.325112,0.15889 0.643713,0.31849 0.964434,0.47838 0.07887,0.0393 0.164928,0.0776 0.243488,0.11693 0.613631,0.30744 1.226294,0.62398 1.823248,0.93551 0.391699,0.2044 0.779326,0.41025 1.163618,0.61657 0.272699,0.14642 0.534279,0.28842 0.80317,0.43586 0.05151,0.0282 0.09624,0.0568 0.147531,0.085 1.246778,0.68639 2.457315,1.38309 3.618334,2.09424 0.07526,0.0461 0.149178,0.092 0.224139,0.13819 1.128586,0.69637 2.213891,1.41246 3.254686,2.13677 0.396346,0.27554 0.787573,0.5492 1.170153,0.82919 0.05847,0.0428 0.100684,0.0846 0.158921,0.12756 0.2613,0.19261 0.537877,0.38989 0.792731,0.58469 0.877643,0.67092 1.707943,1.35289 2.507233,2.05172 0.373191,0.32635 0.744581,0.65575 1.100015,0.98865 0.095853,0.0897 0.1886189,0.17559 0.2830723,0.26577 0.309203,0.29504 0.6170782,0.59255 0.912124,0.89297 -8.5780513,-3.14811 -20.1155653,-6.88521 -31.0163823,-10.0566 -22.330184,-6.49656 -14.015449,-16.22723 -59.867515,-25.65178 -47.198339,-9.70126 -116.704969,-15.63695 -137.034259,-24.40799 -6.54711,-2.82473 -17.34931,-9.09381 -20.18424,-11.71499 -0.66059,-0.61033 -1.26038,-0.96022 -1.35878,-0.78667 -0.40357,0.71174 5.51068,5.25875 10.79174,8.30254 4.91235,2.83131 11.22044,5.73294 18.82087,8.65336 11.20594,6.16711 86.44893,33.9665 120.39896,42.27813 39.483229,9.5199 44.374461,1.89812 60.471652,2.24307 4.136215,1.10847 8.026472,2.19288 11.596847,3.24236 9.77607,2.87356 21.24831,7.13358 29.4450039,10.49245 13.1250174,17.85198 5.314703,32.97056 19.2959111,50.84645 0.0056,0.006 0.02407,0.0145 0.03063,0.0213 0.01168,0.0149 -3.36e-4,0.0277 0.01136,0.0426 0.597314,0.76117 1.24537,1.53526 1.925164,2.30686 0.205583,0.23332 0.422773,0.46729 0.636322,0.70162 0.103348,0.11344 0.210111,0.22651 0.315322,0.34018 0.06239,0.0674 0.128119,0.13454 0.191146,0.20199 0.321433,0.34392 0.647161,0.685 0.986326,1.03117 0.194369,0.1983 0.38278,0.39626 0.583093,0.59531 0.166975,0.16602 0.32396,0.33311 0.495182,0.49965 0.181244,0.1762 0.380141,0.35472 0.566144,0.53153 0.108235,0.10298 0.209423,0.2051 0.319361,0.30829 0.255662,0.23989 0.527272,0.48186 0.791948,0.72289 0.414494,0.37745 0.827308,0.75713 1.264534,1.13748 -44.606363,0.35607 -79.466331,2.70743 -93.528545,5.98505 -6.160754,1.2285 -9.416007,2.59252 -9.034376,4.05029 l -0.624877,0 33.635503,18.22095 6.415053,0.86108 113.329559,63.83711 c 0.0148,0.31627 9.677234,7.66802 10.147429,7.99425 6.531559,4.5317 55.598698,8.20687 109.584308,8.20687 53.9856,0 92.43366,-3.67517 85.9021,-8.20687 -0.81646,-0.56647 -12.02056,-7.16245 -14.09256,-7.6966 l -72.21545,-62.6252 3.99404,-1.47766 -18.88911,-17.75321 c -0.14435,-0.26983 -0.40804,-0.54347 -0.80488,-0.81856 -0.0458,-0.0318 -0.11378,-0.0639 -0.16289,-0.0957 l -0.60244,-0.57405 c -0.73316,-0.26528 -1.56925,-0.51693 -2.51823,-0.77604 -15.53532,-5.06269 -71.911049,-8.99625 -134.224013,-9.17425 -1.612106,-2.34251 -2.891749,-4.6575 -3.906485,-6.94183 -0.110306,-0.24873 -0.218245,-0.49607 -0.322696,-0.74414 -0.523073,-1.24026 -0.988253,-2.47488 -1.38284,-3.69947 -0.0092,-0.0286 -0.01344,-0.0565 -0.02256,-0.0851 -0.05367,-0.16753 -0.09369,-0.33239 -0.145243,-0.49964 -0.158425,-0.51523 -0.30682,-1.02885 -0.447048,-1.54145 -0.07263,-0.26474 -0.156121,-0.53324 -0.22434,-0.7973 -0.06415,-0.24894 -0.112234,-0.4958 -0.17271,-0.74414 -0.895223,-3.66361 -1.432733,-7.24356 -1.979537,-10.79012 -0.139077,-0.90372 -0.257237,-1.81359 -0.407808,-2.71082 -0.101931,-1.02932 -0.24276,-2.08372 -0.386139,-3.14667 -0.05927,-0.43825 -0.121312,-0.88529 -0.190595,-1.32884 1.05348,-1.23897 2.349417,-2.41891 3.945206,-3.40181 1.394972,-0.8592 3.052621,-1.73221 4.944384,-2.60451 17.688972,1.19674 46.390403,11.87913 67.202364,4.76254 17.6795,-6.30235 29.63498,-32.44573 25.80856,-38.47236 1.16479,-2.59371 0.94844,-5.28945 -0.6856,-8.03678 -1.77451,-2.98346 -4.61618,-5.44821 -6.9114,-6.30398 -0.55971,-0.20867 -0.36929,0.13936 0.44365,0.77604 3.49388,2.73455 5.16613,6.70258 4.92377,9.31246 -0.7526,8.1039 -75.309118,7.20967 -104.50278,13.78797 -5.581034,1.25758 -8.31711,2.77516 -9.207647,4.43298 -5.0968736,-4.65133 -12.0221547,-9.34015 -21.5022195,-13.94743 -3.4032565,-1.84226 -6.9743755,-3.54917 -10.6208795,-5.1665 -0.06223,-0.0318 -0.125383,-0.0639 -0.187891,-0.0957 -2.123637,-0.97914 -4.370649,-1.9153 -6.715459,-2.83839 -0.07934,-0.0322 -0.15856,-0.0635 -0.237873,-0.0957 -0.0256,-0.01 -0.04535,-0.0218 -0.07095,-0.0319 -14.003228,-5.67215 -28.537303,-10.34285 -39.739396,-15.93536 0.593339,-0.65804 1.222239,-1.29082 1.917734,-1.86036 0.990428,-0.81102 2.204013,-1.64128 3.603544,-2.47695 14.791913,0.59965 37.473372,8.27163 53.3301141,1.32884 13.3543241,-6.09916 20.8487809,-28.72779 17.1661319,-34.02874 0.489959,-2.38772 -0.19581,-4.82499 -2.0972422,-7.28201 -2.047068,-2.64505 -7.0185427,-6.71755 -9.08542273,-7.43083 -0.0631076,-0.0217 -0.12112807,-0.0354 -0.16130417,-0.0426 -0.2808326,-0.0495 -0.015277,0.24923 0.68228134,0.73351 3.42317236,2.37688 7.72589106,7.82472 8.02982306,10.18418 0.9437017,7.32632 -52.4673323,9.05952 -75.3790563,15.73337 -22.258238,6.48349 8.724541,16.3937 2.373858,21.39952 -1.024406,0.80746 -1.914854,1.67002 -2.681144,2.56199 -6.164031,-3.29517 -11.141096,-6.94348 -14.187714,-11.30039 -0.01057,-0.0108 -0.01038,-0.0211 -0.02095,-0.0319 -1.053379,-1.51332 -1.872601,-3.12514 -2.432094,-4.82632 -0.05547,-0.16919 -0.110319,-0.33906 -0.160564,-0.51027 -0.07629,-0.80279 -0.160326,-1.61268 -0.259389,-2.43442 -0.055,-0.45563 -0.12473,-0.92082 -0.192215,-1.38199 -0.05389,-0.36832 -0.120028,-0.74448 -0.184093,-1.11622 -0.04888,-0.28319 -0.09517,-0.56533 -0.150976,-0.85045 -0.02677,-0.13706 -0.06911,-0.27709 -0.09765,-0.41459 -0.08815,-0.42406 -0.18227,-0.84756 -0.288954,-1.27569 -0.06336,-0.25469 -0.132657,-0.50931 -0.203353,-0.7654 -0.142309,-0.51459 -0.286711,-1.03204 -0.462367,-1.55208 -0.176975,-0.52431 -0.367484,-1.05437 -0.583318,-1.58396 -0.06331,-0.15513 -0.132342,-0.3122 -0.19927,-0.46776 -0.123072,-0.28645 -0.255327,-0.57317 -0.391248,-0.86108 -0.02714,-0.0574 -0.0425,-0.11261 -0.07016,-0.17009 -0.184738,-0.38422 -0.385818,-0.77203 -0.595304,-1.15874 -0.166069,-0.30625 -0.350511,-0.6171 -0.533177,-0.92487 -0.34976,-0.58951 -0.7186,-1.18053 -1.134057,-1.77532 -0.0022,-0.003 -0.01264,-0.007 -0.01524,-0.0106 -0.313971,-0.44907 -0.641415,-0.89819 -0.996081,-1.35009 -0.0084,-0.0108 -0.01278,-0.0211 -0.02095,-0.0319 -3.909634,-4.96836 -10.358548,-10.10246 -21.213878,-15.30815 -3.03202,-1.45162 -6.37612,-2.85702 -9.90143,-4.19911 -0.49196,-0.18726 -0.98707,-0.37861 -1.48694,-0.56342 -0.15595,-0.0577 -0.31343,-0.11268 -0.47011,-0.1701 -0.16412,-0.0601 -0.3206,-0.12088 -0.48543,-0.18071 -2.11894,-0.92032 -4.37097,-1.81908 -6.74123,-2.70019 -0.83567,-0.25675 -1.68183,-0.51634 -2.5279,-0.76541 1.98577,0.72402 3.88628,1.46929 5.70181,2.22181 -0.58594,-0.19926 -1.16424,-0.39968 -1.75786,-0.59532 -0.0835,-0.0275 -0.16383,-0.0576 -0.24755,-0.085 -0.7357,-0.2414 -1.48012,-0.47666 -2.22634,-0.71226 -0.66008,-0.20838 -1.32093,-0.41287 -1.98846,-0.61657 -0.70889,-0.21639 -1.40293,-0.42702 -2.11908,-0.63785 z m 310.38881,167.12458 c 0.11741,0.0425 0.24709,0.0849 0.35884,0.12757 l -0.38948,-0.14883 0.0306,0.0213 z M 22.009112,409.27487 c 5.823314,3.90817 11.625425,7.52628 7.857169,9.76958 -1.155412,0.68784 -2.206725,1.4216 -3.182732,2.17929 -0.01656,-0.0742 -0.02991,-0.14893 -0.04679,-0.22325 -0.169606,-0.7433 -0.344252,-1.48837 -0.558473,-2.24307 -0.106259,-0.37504 -0.230755,-0.74918 -0.349387,-1.12685 -0.02248,-0.0714 -0.03359,-0.1411 -0.05647,-0.21261 -0.340717,-1.06397 -0.739422,-2.1386 -1.193253,-3.22109 -0.12156,-0.28968 -0.251014,-0.58085 -0.38158,-0.87172 -0.129239,-0.28803 -0.268116,-0.58256 -0.406576,-0.87171 -0.08335,-0.17389 -0.164096,-0.34662 -0.250879,-0.5209 -0.203655,-0.4094 -0.429155,-0.82174 -0.652583,-1.23316 -0.02919,-0.0536 -0.05039,-0.10583 -0.0799,-0.15945 -0.232338,-0.4231 -0.444032,-0.84001 -0.69855,-1.26506 z"
       id="path4037" />
    <path
       style="fill:url(#linearGradient3161);fill-opacity:1;stroke:none"
       d="m 172.88972,318.909 c -66.7048,0 -121.551661,10.01538 -127.988543,22.84661 l -0.634626,0 7.367081,42.83277 5.176683,2.01898 21.333533,150.10809 c -0.441081,0.74363 -1.384359,18.01576 -1.384359,18.7828 0,10.65504 43.762931,19.29268 97.748541,19.29268 53.98561,0 97.74853,-8.63764 97.74853,-19.29268 0,-1.33191 -1.6965,-16.84688 -2.99862,-18.10279 l 18.03583,-147.24465 6.1278,-3.47091 7.26009,-45.28329 0.18075,0.359 C 294.42428,328.92464 239.5936,318.909 172.88972,318.909 z"
       id="path3139"
       sodipodi:nodetypes="ccccccssscccccc" />
    <path
       sodipodi:type="arc"
       style="opacity:0.4;fill:url(#linearGradient3169);fill-opacity:1;stroke:none"
       id="path3151"
       sodipodi:cx="466"
       sodipodi:cy="752.09448"
       sodipodi:rx="304"
       sodipodi:ry="60"
       d="m 770,752.09448 c 0,33.13709 -136.10544,60 -304,60 -167.89456,0 -304,-26.86291 -304,-60 0,-33.13708 136.10544,-60 304,-60 167.89456,0 304,26.86292 304,60 z"
       transform="matrix(0.41640486,0,0,0.41640486,-20.144823,29.842754)" />
    <path
       transform="matrix(0.33624135,0,0,0.33624135,18.226774,91.148687)"
       d="m 770,752.09448 c 0,33.13709 -136.10544,60 -304,60 -167.89456,0 -304,-26.86291 -304,-60 0,-33.13708 136.10544,-60 304,-60 167.89456,0 304,26.86292 304,60 z"
       sodipodi:ry="60"
       sodipodi:rx="304"
       sodipodi:cy="752.09448"
       sodipodi:cx="466"
       id="path3153"
       style="opacity:0.4;fill:url(#linearGradient3949);fill-opacity:1;stroke:none"
       sodipodi:type="arc" />
    <g
       id="g3910"
       transform="matrix(0.50770218,0,0,0.50770218,1358.5083,225.9195)">
      <path
         style="fill:#8f6b32;fill-opacity:1;stroke:none"
         d="m -2220.4576,-546.44043 c 15.4764,27.96081 16.3952,61.02643 3.9886,90.42605 -22.4317,63.58225 -74.2962,118.83625 -70.7746,189.873 25.2556,58.57134 61.0483,96.03724 47.8436,161.96191 -26.4869,102.5459855 -107.653,184.455946 -118.1549,292.19625 -6.9486,27.27742 10.3675,75.61233 21.1631,84.73789 -7.0543,-81.64453 37.7185,-154.58216 75.0562,-223.517434 34.5847,-60.58055 72.6433,-134.404206 54.2555,-204.552096 -12.7653,-73.92345 -76.7241,-102.45497 -31.7589,-194.55862 26.5465,-46.36271 55.6649,-99.76224 40.5724,-154.86652 -4.2177,-15.31746 -12.0536,-29.51195 -22.191,-41.70043 z"
         id="path3864"
         sodipodi:nodetypes="ccccccccccc" />
      <path
         id="path3866"
         d="m -2220.4688,-546.45105 c 11.3502,20.50606 14.8548,43.77483 11.0313,66.3125 4.3949,-13.22894 6.2196,-27.0336 5.2813,-40.625 -4.2596,-9.22613 -9.8161,-17.87662 -16.3126,-25.6875 z m 23.5313,100.03125 c -8.4613,28.34569 -23.5499,55.45826 -37.9063,80.53125 -7.4085,15.17524 -11.8516,28.63269 -14.0624,40.84375 2.4493,-7.75498 5.7532,-16.01693 10.0624,-24.84375 17.035,-29.75104 35.1152,-62.3939 41.9063,-96.53125 z m -83.5937,128.6875 c -4.8872,16.44289 -7.6157,33.50169 -6.7188,51.59375 24.627,57.11355 59.2525,94.16132 48.7188,157.09375 1.1066,-3.69107 2.1579,-7.38118 3.125,-11.125 13.2046,-65.92467 -22.5882,-103.39741 -47.8438,-161.96875 -0.6097,-12.29895 0.4482,-24.11587 2.7188,-35.59375 z m 73.75,240.65625 c -11.0846,38.92486 -31.351,76.66049 -50.5626,110.3125 -27.2086,50.23445 -58.3588,102.60051 -70.5312,158.90625 14.0979,-50.27276 41.9162,-97.46042 66.5312,-142.90625 21.8344,-38.24622 45.0369,-81.76686 54.5626,-126.3125 z m -142.125,219.65625 c -4.1193,14.69348 -7.1318,29.79754 -8.6563,45.4375 -6.9486,27.27742 10.3606,75.62444 21.1563,84.75 -0.6329,-7.32453 -0.8461,-14.59347 -0.6876,-21.78125 -10.3673,-16.13786 -22.4719,-55.40259 -16.4687,-78.96875 0.977,-10.0235 2.5569,-19.82372 4.6563,-29.4375 z"
         style="fill:#382509;fill-opacity:1;stroke:none" />
      <path
         id="path3871"
         d="m -2216.4688,-544.45105 c 15.4766,27.96081 16.4066,61.03788 4,90.4375 -22.4317,63.58225 -74.3028,118.83825 -70.7812,189.875 25.2556,58.57134 61.0484,96.04408 47.8438,161.96875 -26.4869,102.54599 -107.6544,184.4472 -118.1563,292.1875 -6.9486,27.27742 10.3605,75.62444 21.1563,84.75 0,-0.0207 0,-0.0418 0,-0.0625 -10.7789,-12.79305 -25.6887,-57.0441 -19.1563,-82.6875 10.5019,-107.7403 91.6694,-189.64151 118.1563,-292.1875 13.2046,-65.92467 -22.5882,-103.39741 -47.8438,-161.96875 -3.5216,-71.03675 48.3495,-126.29275 70.7812,-189.875 12.181,-28.86483 11.4883,-61.27417 -3.1874,-88.90625 -0.9171,-1.18903 -1.8532,-2.37777 -2.8126,-3.53125 z"
         style="fill:#debc85;fill-opacity:1;stroke:none" />
      <path
         id="path3885"
         d="m -2227.4733,-183.35708 c 2.4991,47.47448 8.7598,97.63 -9.9196,142.749979 -8.4405,14.92704 -21.2327,32.322485 -27.8933,44.9596964 12.1652,-27.0922454 37.2027,-49.4572764 37.0721,-81.0998494 5.6729,-35.309826 1.4455,-71.118146 0.7408,-106.609826 z"
         style="fill:#debc85;fill-opacity:1;stroke:none" />
      <path
         id="path3887"
         d="m -2243.815,-7.11638 c -26.7495,32.57108 -47.5089,70.568499 -57.7626,111.56743 3.7689,-19.129117 9.8543,-37.913129 19.8455,-54.57164 9.4878,-20.861557 22.5076,-40.0602421 37.9171,-56.99579 z"
         style="fill:#debc85;fill-opacity:1;stroke:none" />
      <path
         id="path3889"
         d="m -2300.732,76.863 c -15.2369,24.58412 -34.4805,49.29866 -34.8504,79.59802 -1.0802,9.14165 -5.0056,38.77088 -2.6059,13.55209 0.7933,-31.05026 12.6366,-61.15076 32.0624,-85.232893 1.7418,-2.137773 1.7828,-7.753768 5.3939,-7.917217 z"
         style="fill:#debc85;fill-opacity:1;stroke:none" />
      <path
         id="path3891"
         d="m -2211.476,-146.9665 c 2.3419,-27.4977 -8.141,-53.46496 -24.977,-74.37541 -12.6875,-26.19184 -23.2968,-54.57463 -24.712,-83.77997 2.1674,18.9492 5.8836,37.53167 12.7836,55.34049 8.5452,24.87501 27.2497,45.08056 34.9904,70.09482 2.3902,10.69664 3.3464,21.81892 1.915,32.72007 z"
         style="fill:#debc85;fill-opacity:1;stroke:none" />
      <path
         id="path3893"
         d="m -2228.8709,-379.09041 c -35.5628,31.47849 -41.8241,82.80069 -38.066,127.59301 -5.1696,-44.72381 1.5207,-96.93459 38.066,-127.59301 z"
         style="fill:#debc85;fill-opacity:1;stroke:none" />
    </g>
    <g
       id="g2906"
       transform="matrix(-0.54343456,-0.11253036,-0.11253036,0.54343456,-398.19224,-7.8109586)">
      <path
         id="path2902"
         d="m -1154.8245,255.7926 c -2.7813,-12.1997 -16.725,-41.06217 -32.8284,-59.7133 -19.5873,-22.68645 -50.9934,-48.86544 -88.8709,-74.0795 -36.6913,-24.424501 -64.9136,-44.523442 -82.1129,-58.477784 -43.9315,-35.64334 -70.1694,-74.070389 -75.3306,-110.326851 -1.8933,-13.300329 -1.0254,-23.807701 1.5833,-26.970068 0.6362,-0.771109 0.8594,0.790544 0.4972,3.470187 -1.5597,11.508317 2.1964,29.446126 7.0193,41.736687 14.9756,38.1633849 145.0042,61.235684 207.5945,102.658075 60.8051,40.240904 3.833,84.507894 28.47,112.542804 20.7497,23.61159 38.4474,54.71955 38.3257,67.36694 -0.033,3.45684 -0.3149,3.88371 -0.892,1.35181 l 0,0 -5e-4,7e-5 0,-1e-5 -3.4547,0.44094 z"
         style="fill:url(#linearGradient3779);fill-opacity:1;stroke:none"
         sodipodi:nodetypes="cssssssssssccccc" />
      <path
         style="fill:url(#linearGradient3795);fill-opacity:1;stroke:none"
         d="m -1420.5479,-14.440382 c -11.8724,3.693927 62.9652,154.483092 109.2297,194.236862 49.4409,41.4922 82.3432,0.2037 111.8766,2.34563 1.017,-2.56267 5.3003,2.82039 6.7504,0.58343 -21.201,-14.86891 -49.4402,-40.98395 -77.3718,-64.29726 -57.4973,-35.337028 -100.8425,-82.02629 -144.6246,-129.96118 -2.8177,-2.357879 -4.744,-3.25478 -5.8603,-2.907482 z"
         id="path2904"
         sodipodi:nodetypes="ccccccc" />
    </g>
    <g
       id="g3848"
       transform="matrix(0.48790433,0.14039541,-0.14039541,0.48790433,947.15986,426.23806)">
      <path
         id="path2918"
         transform="translate(0,308.2677)"
         d="m -1371.0625,-852 c -0.4599,-0.10625 -0.3693,1.31314 0.25,3.46875 3.0389,10.57977 3.2776,36.78125 0.4375,48.96875 -8.8188,37.84338 -112.4084,75.98554 -165.4375,123.40625 -51.5166,46.06812 -7.233,81.08274 -26.5,110.75 -5.3064,8.17082 -10.1666,17.05569 -14.2813,25.71875 0.8679,0.77238 1.8848,1.40775 3.0313,1.875 0.2781,0.11335 0.5593,0.22256 0.8437,0.3125 3.3472,-6.6509 6.978,-13.15015 10.625,-18.875 15.2637,-23.95953 41.1162,-52.82133 73.1876,-81.65625 31.0669,-27.93196 54.7803,-50.65091 69,-66.09375 36.3209,-39.44538 55.6872,-79.07041 55.5624,-113.78125 -0.046,-12.73334 -3.5889,-31.32887 -6.4687,-33.9375 -0.088,-0.0795 -0.1843,-0.14107 -0.25,-0.15625 z"
         style="fill:url(#linearGradient3852);fill-opacity:1;stroke:none" />
      <path
         style="fill:url(#linearGradient3854);fill-opacity:1;stroke:none"
         d="m -1372.5065,-477.44646 c 11.6408,1.83852 -42.222,148.70518 -80.1681,192.32513 -40.6871,45.68538 -72.8749,16.27153 -100.2802,22.32496 -1.3048,-2.26419 -1.919,0.55484 -3.5855,-1.34454 17.8478,-16.84865 42.6548,-42.15306 65.6583,-67.84321 49.0859,-41.01592 78.78,-90.98008 113.2775,-141.93293 2.3197,-2.59728 4.0036,-3.70227 5.098,-3.52941 z"
         id="path2920"
         sodipodi:nodetypes="ccccccc" />
    </g>
    <path
       sodipodi:nodetypes="cssssssssscsccccc"
       id="path3832"
       d="m 237.21511,-14.865551 c -2.01898,2.713891 -5.4738,4.8716914 -8.63952,5.3960919 -6.25743,1.0365654 -12.37433,-2.2323159 -15.48791,-8.2767639 -1.03125,-2.001865 -1.74543,-4.780559 -1.79285,-6.975513 -0.18521,-8.571511 5.91905,-15.190977 13.09861,-14.204213 2.10661,0.289528 3.73542,1.034494 5.31311,2.430077 2.7886,2.466716 4.03613,5.931002 3.40602,9.458192 -0.24126,1.350335 -1.04439,3.378869 -1.36927,3.458456 -0.0811,0.0199 0.0657,-0.403018 0.32635,-0.939832 0.5771,-1.188515 0.97002,-3.103746 0.90356,-4.404555 -0.0679,-1.329317 -0.76735,-3.594314 -1.44579,-4.68167 -1.92556,-2.998778 -4.74437,-3.421871 -6.96197,-2.474621 -8.60428,3.675266 -2.69224,22.322441 10.99038,19.949314 l 0.55396,-0.745251 0.64184,0.407929 c 1.06465,0.67664 1.08917,0.761406 0.46348,1.602359 l 0,0 z"
       style="fill:#006e29;fill-opacity:1;stroke:none" />
    <path
       style="fill:url(#linearGradient3862);fill-opacity:1;stroke:none"
       d="m 237.78739,-12.689484 c -2.58629,3.2045806 -6.95567,5.7942526 -10.92666,6.4761322 -7.84913,1.3478122 -15.42537,-2.3191327 -19.18292,-9.2846492 -1.24443,-2.306928 -2.07488,-5.525246 -2.08463,-8.079146 -0.0381,-9.973134 7.74541,-17.816107 16.70218,-16.829556 2.62802,0.289462 4.64822,1.119845 6.58983,2.708724 3.43181,2.808324 4.91385,6.812647 4.04618,10.932604 -0.33214,1.577213 -1.38237,3.95659 -1.79051,4.056566 -0.10195,0.02498 0.0913,-0.470604 0.42936,-1.101332 0.7486,-1.396497 1.28322,-3.634701 1.22945,-5.147364 -0.0549,-1.545832 -0.87853,-4.166504 -1.70252,-5.416898 -2.34041,-3.447131 -5.8562,-3.875987 -8.65094,-2.723331 -10.84371,4.472273 -3.87093,26.044381 13.29458,22.973179 l 0.70962,-0.880026 0.79354,0.460385 c 1.31616,0.763584 1.3449,0.861702 0.54344,1.854712 l 0,0 z"
       id="path3828"
       sodipodi:nodetypes="cssssssssscsccccc" />
    <path
       style="opacity:0.4;fill:#2e3436;stroke:none"
       d="m 226.07861,185.86798 -4.56932,3.93469 -5.71165,6.72706 c 0,0 1.5231,-4.31547 1.90389,-4.82317 0.38077,-0.50771 3.30006,-3.55392 3.30006,-3.55392 l 5.07702,-2.28466 z"
       id="path3926" />
    <g
       id="g3840"
       transform="matrix(0.5035573,-0.06474222,0.06474222,0.5035573,1038.2701,82.50045)">
      <path
         sodipodi:nodetypes="cssssssssssccccc"
         style="fill:url(#linearGradient3844);fill-opacity:1;stroke:none"
         d="m -1618.6936,2.1559576 c -1.0462,-13.1896696 -11.9117,-49.4781476 -25.9113,-71.4534576 -17.0285,-26.72982 -45.8895,-58.91965 -81.669,-91.08857 -34.659,-31.16156 -61.1177,-56.50331 -76.9815,-73.73172 -40.5206,-44.00621 -62.1027,-88.22175 -61.9635,-126.946 0.051,-14.20562 4.0093,-34.96212 7.2221,-37.87237 0.7834,-0.70963 0.7784,0.95846 -0.01,3.70687 -3.3902,11.80304 -3.6456,41.04059 -0.4771,54.63726 9.8384,42.21897 125.3982,84.75931 184.5588,137.66299 57.4731,51.39469 8.0652,90.47435 29.56,123.57185 18.1033,27.87539 34.3226,63.443656 32.263,76.6582361 -0.5629,3.61187 -3.3776,3.6998639 -3.5947,0.9625139 l 0,0 -5e-4,0 3.3814,-1.3475785 -6.3777,5.2399761 z"
         id="path2895" />
      <path
         sodipodi:nodetypes="ccccccc"
         id="path2897"
         d="m -1856.1227,-325.15008 c -12.9867,2.0511 47.1039,165.89905 89.4375,214.5625 45.3914,50.96769 81.3009,18.1529 111.8749,24.90625 1.4557,-2.52598 2.141,0.619 4,-1.5 -19.9113,-18.79675 -47.5866,-47.02695 -73.2499,-75.6875 -54.7614,-45.75833 -87.8888,-101.49955 -126.375,-158.34375 -2.588,-2.8976 -4.4665,-4.13035 -5.6875,-3.9375 z"
         style="fill:url(#linearGradient3846);fill-opacity:1;stroke:none" />
    </g>
    <path
       sodipodi:nodetypes="cccsscc"
       style="opacity:0.4;fill:#2e3436;stroke:none"
       d="m 211.94829,93.61908 -7.51607,4.025989 -3.94749,0.444552 c 0,0 -0.7422,-2.144512 -0.12956,-2.310176 2.17697,-0.588644 0.80171,0.811744 5.26005,-1.380631 5.33356,-2.622763 5.1217,-2.338923 5.1217,-2.338923 l 1.21137,1.559189 z"
       id="path3930" />
    <path
       style="opacity:0.3;fill:url(#linearGradient3961);fill-opacity:1;stroke:none"
       d="m 163.4005,574.35725 c -42.35664,-1.11806 -76.256549,-7.4519 -83.642955,-15.62778 l -1.796965,-1.98903 0.341517,-6.39095 c 0.187835,-3.51503 0.480625,-8.35166 0.650647,-10.74801 l 0.309131,-4.35705 2.849318,1.87891 c 5.707937,3.76395 15.169318,6.59957 30.265237,9.07055 19.91792,3.26031 34.75766,4.25053 64.63855,4.31324 l 61.08462,-3.50239 -16.89172,25.01845 c -19.11053,2.43438 -38.55837,2.42514 -57.80738,2.33406 z"
       id="path3953"
       sodipodi:nodetypes="cccccccscccc" />
    <path
       sodipodi:nodetypes="cccsccccc"
       id="path3963"
       d="M 183.2106,440.15788 61.725952,419.6849 58.35413,386.49642 c 8.808349,5.51464 23.286828,9.484 46.31403,12.69714 30.38263,4.23958 52.96742,5.21186 98.37426,4.23519 l 84.07765,-12.53931 -16.15379,43.64799 c -28.95149,4.38466 -58.50321,5.0683 -87.75571,5.62045 l 3e-5,0 z"
       style="opacity:0.3;fill:url(#linearGradient3965);fill-opacity:1;stroke:none" />
    <path
       style="fill:url(#linearGradient3995);fill-opacity:1;stroke:none"
       d="m 172.00124,341.43829 c -0.364,0.18549 0.28849,0.0881 0,0 z m -5.21981,5.10875 c -1.97993,0.53823 -2.99819,-3.71841 -5.05733,-4.23795 -4.94322,-1.24726 -11.04867,-0.30325 -15.89477,0.36284 -6.61611,0.7638 -13.62646,0.0172 -19.92453,2.38838 -6.4849,3.85433 -14.19841,3.55925 -21.42794,4.65987 -6.171416,1.67241 -16.806245,2.84303 -20.223018,5.02696 21.965228,7.15739 45.254098,8.80857 68.188368,10.02898 32.71815,1.12905 65.77635,0.26382 97.93624,-6.3373 2.99453,-0.87295 12.82094,-2.64156 11.13884,-3.66003 -6.43453,-0.11804 -12.79452,-1.69144 -17.76214,-5.92815 -5.56985,-4.08325 -10.07028,3.86919 -15.63694,3.05901 -5.07296,-1.40963 -7.04191,-9.76456 -13.59207,-6.83829 -5.28897,2.48155 -11.00389,2.22428 -15.87064,-0.93906 -4.74942,0.68579 -9.66299,2.17753 -14.64472,1.63757 -2.77894,-0.0153 -6.68851,-5.02349 -9.23276,-4.39252 -3.21327,0.79689 -5.00404,7.11428 -7.99659,5.16969 z m 5.41021,-4.88663 -0.0158,0.0952 0.0158,-0.0952 z m -3.04622,0.39664 0.0158,0.0317 -0.0158,-0.0317 z m 0.17452,0.0634 -0.0318,0.0317 0.0318,-0.0317 z m -11.3281,0.26969 1.99908,-0.20628 -1.99908,0.20628 z m 15.29452,-0.25385 -0.0634,0.0158 0.0634,-0.0158 z m -1.9832,0.33318 0.0476,0.0318 -0.0476,-0.0318 z m -2.12601,0.11106 0.11106,0 -0.11106,0 z m 1.45965,0 -0.0317,0.0634 0.0317,-0.0634 z m 29.17701,0.12692 0.14279,0 -0.14279,0 z m -29.28808,0.0634 0.0952,0.0158 -0.0952,-0.0158 z m 0.39665,0.0634 c -0.57995,0.52832 0.94368,0.099 0,0 z m -65.47772,3.8395 c 1.77586,2.9356 1.8728,3.09582 0,0 z m -4.91836,3.6491 0.0476,0.0158 -0.0476,-0.0158 z m -0.602895,0.22212 0,0.11106 0,-0.11106 z m -0.618766,0.19039 0,0.0476 0,-0.0476 z"
       id="path3971"
       sodipodi:nodetypes="cccsccccccccccccscccccccccccccccccccccccccccccccccccccccccccc" />
    <path
       style="fill:#803f00;stroke:none"
       d="m 144.17413,350.98173 c -6.28781,-2.3738 -7.79415,5.1624 -0.88112,4.60068 5.65745,3.4182 13.94521,-0.84327 5.97983,-5.08512 l -0.79071,0.48444"
       id="path4005" />
    <path
       style="fill:#803f00;stroke:none"
       d="m 173.92755,344.4687 c -0.88154,1.76865 -2.86485,6.51161 1.25757,9.319 2.78235,1.89481 7.46336,-10e-5 9.11488,-1.76568 0.8829,-5.52337 -7.30972,-10.25764 -10.37245,-7.55332 z"
       id="path4007"
       sodipodi:nodetypes="cscc" />
    <path
       style="fill:#803f00;stroke:none"
       d="m 218.06646,346.115 c -2.89742,3.46779 -0.41107,6.61722 2.72445,8.3603 4.00644,2.22724 9.07278,2.15839 5.32181,-2.47625 -2.12968,-2.0731 -5.39339,-8.44222 -8.04626,-5.88405 z"
       id="path4009"
       sodipodi:nodetypes="cscc" />
    <path
       style="fill:#803f00;stroke:none"
       d="m 206.1834,347.75073 c 0.52523,-1.05104 -1.40658,11.77919 -8.3811,7.22388 -4.12328,-3.95796 1.12649,-5.84987 3.40922,-8.46762"
       id="path4011"
       sodipodi:nodetypes="ccc" />
    <path
       style="fill:#803f00;stroke:none"
       d="m 166.43211,359.23872 c -7.35444,3.42927 6.55959,6.3457 10.28278,4.42756 4.88842,0.2225 8.92055,-1.23551 2.77557,-3.83803 -1.70883,-2.8113 -12.91783,-3.42317 -6.92984,-4.71274"
       id="path4013"
       sodipodi:nodetypes="cccc" />
    <path
       style="fill:#803f00;stroke:none"
       d="m 244.33504,354.93072 c 0.0245,-2.15072 -1.33143,5.14053 1.90927,1.84342 7.5949,1.78152 0.51878,-5.62557 -1.90927,-1.84342 z"
       id="path4015" />
    <path
       sodipodi:nodetypes="ccc"
       id="path4035"
       d="m 244.76876,350.79693 c 0.52524,-1.05103 -1.40657,11.77921 -8.38109,7.2239 -4.12328,-3.95797 1.12649,-5.84987 3.40922,-8.46763"
       style="fill:#590000;stroke:none" />
  </g>
</svg>
